<?xml version='1.0' encoding='utf-8'?>
<svg xmlns="http://www.w3.org/2000/svg" width="800" height="450" viewBox="0 0 800 450">
  <line x1="50" y1="50" x2="50" y2="350" stroke="black" stroke-width="2" />
  <line x1="50" y1="350" x2="750" y2="350" stroke="black" stroke-width="2" />
  <text x="15" y="200" font-family="Verdana" font-size="14" style="writing-mode: tb; glyph-orientation-vertical: 0;">Altitud (m)</text>
  <text x="350" y="390" font-family="Verdana" font-size="14" style="none">Distancia (m)</text>
  <polyline points="50.0,281.6106194690266 67.6619007569386,327.27433628318585 85.32380151387721,333.2212389380531 101.80824222035324,331.94690265486724 117.1152228763667,309.7522123893806 135.3658536585366,305.39823008849555 149.49537426408747,283.6283185840708 161.8587047939445,279.2743362831859 177.16568544995795,287.3451327433629 194.82758620689654,270.67256637168146 211.3120269133726,256.4424778761062 225.44154751892347,213.1150442477876 240.74852817493692,243.06194690265494 258.4104289318756,258.8849557522124 273.717409587889,248.1592920353982 287.8469301934399,218.84955752212394 306.0975609756097,162.03539823008845 321.4045416316232,134.21238938053105 336.7115222876367,125.82300884955751 352.01850294365016,171.0619469026549 367.3254835996636,162.9911504424779 382.632464255677,138.4601769911504 397.9394449116905,110.63716814159301 413.24642556770397,189.85840707964604 428.5534062237174,190.60176991150436 443.86038687973087,155.55752212389376 459.1673675357443,50.0 474.4743481917578,61.787610619469035 489.78132884777125,59.45132743362831 505.08830950378467,68.6902654867257 520.3952901597982,211.30973451327432 535.7022708158115,209.82300884955748 551.0092514718251,188.47787610619474 566.3162321278385,132.93805309734518 581.623212783852,119.34513274336285 596.9301934398654,104.15929203539832 612.2371740958789,98.84955752212397 627.5441547518924,106.28318584070794 642.8511354079058,121.0442477876106 658.1581160639194,142.70796460176996 673.4650967199327,168.40707964601773 688.7720773759462,197.07964601769922 704.0790580319597,217.78761061946898 719.386038687973,225.6460176991151 734.6930193439865,311.1327433628319 750.0,350.0 750,350 50,350" stroke="blue" stroke-width="2" fill="lightblue" />
</svg>